<mxfile host="app.diagrams.net" modified="2022-09-23T07:33:53.222Z" agent="5.0 (Windows NT 10.0; Win64; x64) AppleWebKit/537.36 (KHTML, like Gecko) Chrome/105.0.0.0 Safari/537.36" etag="atZkALCBQXYvi8uZYwp_" version="20.3.6" type="github">
  <diagram id="kgpKYQtTHZ0yAKxKKP6v" name="Page-1">
    <mxGraphModel dx="1422" dy="794" grid="1" gridSize="10" guides="1" tooltips="1" connect="1" arrows="1" fold="1" page="1" pageScale="1" pageWidth="850" pageHeight="1100" math="0" shadow="0">
      <root>
        <mxCell id="0" />
        <mxCell id="1" parent="0" />
        <mxCell id="ahBYlg7rnVmW18Ut7kPX-23" style="edgeStyle=orthogonalEdgeStyle;rounded=0;orthogonalLoop=1;jettySize=auto;html=1;entryX=0;entryY=0.5;entryDx=0;entryDy=0;" edge="1" parent="1" source="ahBYlg7rnVmW18Ut7kPX-1" target="ahBYlg7rnVmW18Ut7kPX-13">
          <mxGeometry relative="1" as="geometry">
            <Array as="points">
              <mxPoint x="200" y="350" />
              <mxPoint x="200" y="450" />
              <mxPoint x="255" y="450" />
              <mxPoint x="255" y="565" />
            </Array>
          </mxGeometry>
        </mxCell>
        <mxCell id="ahBYlg7rnVmW18Ut7kPX-1" value="Actor" style="shape=umlActor;verticalLabelPosition=bottom;verticalAlign=top;html=1;outlineConnect=0;" vertex="1" parent="1">
          <mxGeometry x="120" y="290" width="30" height="60" as="geometry" />
        </mxCell>
        <mxCell id="ahBYlg7rnVmW18Ut7kPX-2" value="Actor" style="shape=umlActor;verticalLabelPosition=bottom;verticalAlign=top;html=1;outlineConnect=0;" vertex="1" parent="1">
          <mxGeometry x="710" y="310" width="30" height="60" as="geometry" />
        </mxCell>
        <mxCell id="ahBYlg7rnVmW18Ut7kPX-3" value="" style="ellipse;whiteSpace=wrap;html=1;" vertex="1" parent="1">
          <mxGeometry x="360" y="80" width="120" height="80" as="geometry" />
        </mxCell>
        <mxCell id="ahBYlg7rnVmW18Ut7kPX-4" value="Эпизод 5&lt;br&gt;Явление 6" style="text;html=1;strokeColor=none;fillColor=none;align=center;verticalAlign=middle;whiteSpace=wrap;rounded=0;" vertex="1" parent="1">
          <mxGeometry x="385" y="105" width="70" height="30" as="geometry" />
        </mxCell>
        <mxCell id="ahBYlg7rnVmW18Ut7kPX-5" value="Примерная диаграмма взаимодействий" style="text;html=1;strokeColor=none;fillColor=none;align=center;verticalAlign=middle;whiteSpace=wrap;rounded=0;" vertex="1" parent="1">
          <mxGeometry x="308" y="10" width="235" height="30" as="geometry" />
        </mxCell>
        <mxCell id="ahBYlg7rnVmW18Ut7kPX-6" value="Основное повествование явления" style="rounded=1;whiteSpace=wrap;html=1;" vertex="1" parent="1">
          <mxGeometry x="360" y="240" width="120" height="60" as="geometry" />
        </mxCell>
        <mxCell id="ahBYlg7rnVmW18Ut7kPX-7" value="" style="endArrow=classic;html=1;rounded=0;exitX=0.5;exitY=1;exitDx=0;exitDy=0;entryX=0.5;entryY=0;entryDx=0;entryDy=0;" edge="1" parent="1" source="ahBYlg7rnVmW18Ut7kPX-3" target="ahBYlg7rnVmW18Ut7kPX-6">
          <mxGeometry width="50" height="50" relative="1" as="geometry">
            <mxPoint x="300" y="290" as="sourcePoint" />
            <mxPoint x="350" y="240" as="targetPoint" />
          </mxGeometry>
        </mxCell>
        <mxCell id="ahBYlg7rnVmW18Ut7kPX-11" value="" style="edgeStyle=orthogonalEdgeStyle;rounded=0;orthogonalLoop=1;jettySize=auto;html=1;entryX=0.5;entryY=0;entryDx=0;entryDy=0;" edge="1" parent="1" source="ahBYlg7rnVmW18Ut7kPX-8" target="ahBYlg7rnVmW18Ut7kPX-13">
          <mxGeometry relative="1" as="geometry">
            <mxPoint x="420" y="510" as="targetPoint" />
          </mxGeometry>
        </mxCell>
        <mxCell id="ahBYlg7rnVmW18Ut7kPX-8" value="Интерактивная игра про почтмейстера с письмами" style="rounded=1;whiteSpace=wrap;html=1;" vertex="1" parent="1">
          <mxGeometry x="360" y="370" width="120" height="60" as="geometry" />
        </mxCell>
        <mxCell id="ahBYlg7rnVmW18Ut7kPX-9" value="" style="endArrow=classic;html=1;rounded=0;exitX=0.5;exitY=1;exitDx=0;exitDy=0;entryX=0.5;entryY=0;entryDx=0;entryDy=0;" edge="1" parent="1" source="ahBYlg7rnVmW18Ut7kPX-6" target="ahBYlg7rnVmW18Ut7kPX-8">
          <mxGeometry width="50" height="50" relative="1" as="geometry">
            <mxPoint x="425" y="310" as="sourcePoint" />
            <mxPoint x="425" y="390" as="targetPoint" />
          </mxGeometry>
        </mxCell>
        <mxCell id="ahBYlg7rnVmW18Ut7kPX-15" style="edgeStyle=orthogonalEdgeStyle;rounded=0;orthogonalLoop=1;jettySize=auto;html=1;entryX=0.5;entryY=0;entryDx=0;entryDy=0;" edge="1" parent="1" source="ahBYlg7rnVmW18Ut7kPX-13" target="ahBYlg7rnVmW18Ut7kPX-14">
          <mxGeometry relative="1" as="geometry" />
        </mxCell>
        <mxCell id="ahBYlg7rnVmW18Ut7kPX-17" style="edgeStyle=orthogonalEdgeStyle;rounded=0;orthogonalLoop=1;jettySize=auto;html=1;" edge="1" parent="1" source="ahBYlg7rnVmW18Ut7kPX-13" target="ahBYlg7rnVmW18Ut7kPX-16">
          <mxGeometry relative="1" as="geometry" />
        </mxCell>
        <mxCell id="ahBYlg7rnVmW18Ut7kPX-13" value="Выбор вскрыть письмо или нет" style="rhombus;whiteSpace=wrap;html=1;" vertex="1" parent="1">
          <mxGeometry x="360" y="510" width="120" height="110" as="geometry" />
        </mxCell>
        <mxCell id="ahBYlg7rnVmW18Ut7kPX-26" style="edgeStyle=orthogonalEdgeStyle;rounded=0;orthogonalLoop=1;jettySize=auto;html=1;entryX=0;entryY=0.5;entryDx=0;entryDy=0;" edge="1" parent="1" source="ahBYlg7rnVmW18Ut7kPX-14" target="ahBYlg7rnVmW18Ut7kPX-24">
          <mxGeometry relative="1" as="geometry" />
        </mxCell>
        <mxCell id="ahBYlg7rnVmW18Ut7kPX-14" value="невскрываем письмо" style="rounded=1;whiteSpace=wrap;html=1;" vertex="1" parent="1">
          <mxGeometry x="260" y="680" width="120" height="60" as="geometry" />
        </mxCell>
        <mxCell id="ahBYlg7rnVmW18Ut7kPX-25" style="edgeStyle=orthogonalEdgeStyle;rounded=0;orthogonalLoop=1;jettySize=auto;html=1;entryX=1;entryY=0.5;entryDx=0;entryDy=0;" edge="1" parent="1" source="ahBYlg7rnVmW18Ut7kPX-16" target="ahBYlg7rnVmW18Ut7kPX-24">
          <mxGeometry relative="1" as="geometry" />
        </mxCell>
        <mxCell id="ahBYlg7rnVmW18Ut7kPX-16" value="вскрываем письмо" style="rounded=1;whiteSpace=wrap;html=1;" vertex="1" parent="1">
          <mxGeometry x="480" y="680" width="120" height="60" as="geometry" />
        </mxCell>
        <mxCell id="ahBYlg7rnVmW18Ut7kPX-18" value="" style="endArrow=classic;html=1;rounded=0;entryX=0;entryY=0.5;entryDx=0;entryDy=0;" edge="1" parent="1" source="ahBYlg7rnVmW18Ut7kPX-1" target="ahBYlg7rnVmW18Ut7kPX-8">
          <mxGeometry width="50" height="50" relative="1" as="geometry">
            <mxPoint x="300" y="510" as="sourcePoint" />
            <mxPoint x="350" y="460" as="targetPoint" />
          </mxGeometry>
        </mxCell>
        <mxCell id="ahBYlg7rnVmW18Ut7kPX-20" value="" style="endArrow=classic;html=1;rounded=0;entryX=1;entryY=0.5;entryDx=0;entryDy=0;" edge="1" parent="1" source="ahBYlg7rnVmW18Ut7kPX-2" target="ahBYlg7rnVmW18Ut7kPX-6">
          <mxGeometry width="50" height="50" relative="1" as="geometry">
            <mxPoint x="300" y="510" as="sourcePoint" />
            <mxPoint x="350" y="460" as="targetPoint" />
          </mxGeometry>
        </mxCell>
        <mxCell id="ahBYlg7rnVmW18Ut7kPX-21" value="Игрок" style="text;html=1;strokeColor=none;fillColor=none;align=center;verticalAlign=middle;whiteSpace=wrap;rounded=0;" vertex="1" parent="1">
          <mxGeometry x="105" y="380" width="60" height="30" as="geometry" />
        </mxCell>
        <mxCell id="ahBYlg7rnVmW18Ut7kPX-22" value="Игра" style="text;html=1;strokeColor=none;fillColor=none;align=center;verticalAlign=middle;whiteSpace=wrap;rounded=0;" vertex="1" parent="1">
          <mxGeometry x="695" y="400" width="60" height="30" as="geometry" />
        </mxCell>
        <mxCell id="ahBYlg7rnVmW18Ut7kPX-24" value="Концовка" style="rounded=1;whiteSpace=wrap;html=1;" vertex="1" parent="1">
          <mxGeometry x="365" y="830" width="120" height="60" as="geometry" />
        </mxCell>
      </root>
    </mxGraphModel>
  </diagram>
</mxfile>
